<?xml version="1.0" standalone="no"?>
<!DOCTYPE svg PUBLIC "-//W3C//DTD SVG 20010904//EN"
 "http://www.w3.org/TR/2001/REC-SVG-20010904/DTD/svg10.dtd">
<svg version="1.0" xmlns="http://www.w3.org/2000/svg"
 width="640.000000pt" height="1280.000000pt" viewBox="0 0 640.000000 1280.000000"
 preserveAspectRatio="xMidYMid meet">
<metadata>
Created by potrace 1.15, written by Peter Selinger 2001-2017
</metadata>
<g transform="translate(0.000000,1280.000000) scale(0.100000,-0.100000)"
fill="#000000" stroke="none">
<path d="M4000 12783 c0 -1 49 -42 108 -91 60 -49 140 -124 177 -166 72 -81
138 -167 131 -173 -2 -2 -54 30 -116 73 -62 42 -136 87 -164 100 -56 25 -159
54 -191 54 -11 -1 21 -12 71 -24 81 -21 174 -59 174 -71 0 -2 -19 3 -42 11
-78 27 -210 44 -463 58 -271 16 -306 23 -384 79 -67 48 -76 53 -66 36 5 -8 31
-44 58 -82 27 -37 50 -73 51 -80 1 -8 18 -31 39 -52 20 -21 35 -41 32 -43 -3
-3 9 -21 27 -39 49 -50 28 -48 -31 4 -28 25 -54 44 -55 42 -2 -2 23 -53 55
-112 33 -60 57 -112 54 -116 -2 -5 7 -19 21 -32 14 -13 30 -33 36 -44 14 -30
-220 211 -275 282 -27 35 -58 84 -70 110 l-22 48 -5 -270 c-4 -230 -6 -258
-14 -187 -5 45 -12 84 -16 87 -8 5 -30 -169 -30 -234 0 -34 12 -85 35 -146 7
-18 6 -18 -9 1 -18 26 -75 191 -77 225 -1 17 -3 19 -6 7 -4 -15 7 -65 33 -145
3 -10 -20 20 -51 67 -32 49 -54 74 -51 60 24 -120 41 -191 52 -222 7 -21 9
-38 4 -38 -12 0 -99 98 -124 139 -20 35 -20 35 -27 10 -12 -43 -9 -142 6 -208
21 -88 85 -207 152 -280 30 -34 54 -63 52 -65 -2 -2 -44 -11 -94 -20 -49 -10
-100 -20 -111 -22 -15 -4 -23 0 -27 15 -6 24 -65 38 -95 22 -11 -6 -26 -24
-34 -41 -7 -17 -22 -33 -33 -35 -53 -13 -466 -88 -685 -125 -382 -65 -476
-107 -695 -310 -66 -62 -137 -124 -157 -138 -31 -22 -38 -33 -38 -63 0 -68 81
-164 180 -210 86 -41 479 -187 602 -224 206 -61 331 -104 365 -124 32 -20 81
-108 101 -183 10 -35 8 -38 -71 -140 -44 -56 -134 -165 -199 -241 -204 -237
-305 -387 -392 -584 -167 -376 -198 -799 -85 -1152 100 -313 367 -568 689
-657 51 -15 100 -18 225 -18 139 1 173 4 255 26 52 14 96 25 96 24 1 0 -11
-59 -27 -131 -46 -207 -62 -364 -85 -822 l-7 -133 71 0 c91 0 102 -10 102 -94
0 -153 129 -762 259 -1219 56 -197 79 -322 88 -472 5 -80 3 -107 -10 -130 -33
-64 -155 -158 -373 -289 -228 -136 -400 -279 -478 -397 -67 -102 -107 -227
-310 -974 -52 -192 -105 -379 -118 -415 l-23 -64 -105 -53 c-249 -127 -309
-178 -386 -326 -41 -79 -46 -95 -40 -134 7 -55 -7 -86 -111 -239 -93 -138 -99
-167 -55 -257 35 -68 117 -181 174 -239 41 -41 102 -64 142 -54 90 22 184 202
216 411 23 149 98 306 234 490 134 180 173 242 396 640 252 449 379 663 429
725 20 25 170 204 334 398 221 261 315 365 360 398 181 130 199 159 271 434
74 286 164 799 167 949 2 130 19 53 57 -260 46 -375 65 -556 82 -780 l11 -146
-80 -318 c-78 -306 -116 -505 -162 -835 -19 -137 -23 -222 -29 -725 -10 -747
-16 -786 -140 -920 -71 -77 -86 -104 -100 -187 -9 -48 -9 -88 0 -159 20 -161
23 -252 11 -343 -13 -94 -7 -116 30 -116 15 0 19 -8 19 -38 0 -59 81 -165 180
-237 90 -64 167 -95 239 -95 74 0 98 25 116 123 8 43 15 95 15 116 0 57 -27
147 -71 241 l-40 85 9 375 9 375 61 240 c96 379 148 558 207 725 177 495 255
839 255 1129 0 125 -25 583 -35 651 -4 24 25 173 91 465 53 237 100 446 104
465 4 19 30 136 58 260 69 307 102 533 102 704 0 44 4 62 18 72 15 11 17 38
21 261 5 352 -9 512 -61 683 -102 339 -213 546 -331 619 -28 17 -33 25 -29 50
10 70 -111 154 -156 109 -14 -14 -4 -23 -162 147 -95 101 -180 217 -273 370
-42 69 -133 345 -147 445 -5 36 -11 113 -14 171 -5 102 -5 106 17 116 52 24
124 103 163 179 37 74 39 82 38 168 0 61 -8 117 -23 170 -12 43 -20 80 -19 82
2 1 70 -61 152 -139 133 -127 170 -170 339 -397 379 -510 446 -571 625 -574
l77 -1 18 55 c28 83 50 219 44 272 -14 116 -123 262 -505 677 -119 129 -211
236 -204 239 30 10 -1 82 -35 82 -6 0 -13 8 -16 19 -2 10 -17 21 -33 25 -16 4
-35 12 -41 18 -19 16 -16 64 8 110 31 60 327 365 407 418 71 47 88 82 45 88
-25 4 -167 -66 -202 -99 l-24 -23 7 53 c7 50 5 55 -59 167 l-65 116 33 46 c32
45 37 48 122 69 174 45 260 99 349 220 91 122 194 323 166 323 -6 0 -31 -31
-56 -70 -26 -38 -48 -70 -49 -70 -2 0 10 33 26 73 15 39 28 81 29 91 0 11 18
58 40 106 39 86 61 166 54 198 -2 9 -8 80 -13 157 -10 134 -35 262 -66 329
-12 24 -14 25 -9 6 4 -17 -5 -9 -30 27 -46 67 -60 75 -38 21 23 -55 39 -118
47 -188 8 -73 -1 -61 -25 35 -22 84 -66 174 -136 271 -55 77 -137 168 -178
196 -17 12 8 -19 55 -68 159 -165 251 -336 263 -487 3 -34 2 -51 0 -38 -11 46
-74 212 -105 273 -73 145 -179 268 -278 321 -64 35 -67 28 -3 -9 97 -57 186
-157 257 -289 34 -63 34 -67 9 -35 -62 76 -110 123 -178 174 -126 94 -198 131
-377 191 -103 35 -233 89 -326 134 -84 42 -153 75 -153 74z m1135 -1519 c-45
-112 -98 -178 -160 -199 -23 -8 -41 -9 -43 -4 -2 5 25 40 61 78 35 38 88 105
118 149 29 45 55 79 58 76 2 -2 -13 -48 -34 -100z m-1893 -165 l20 -26 -36
-48 c-20 -26 -64 -104 -99 -174 -68 -139 -96 -175 -207 -264 -41 -33 -94 -78
-117 -100 l-42 -40 -104 47 c-113 50 -239 80 -555 134 -95 17 -175 31 -177 34
-2 2 53 23 123 47 222 76 474 179 566 231 49 27 93 50 98 50 5 0 24 -16 44
-35 26 -26 43 -35 68 -35 46 0 61 22 60 87 l0 54 85 26 c79 24 188 42 235 39
10 0 28 -13 38 -27z m115 -62 c15 6 14 3 -3 -23 -12 -16 -67 -117 -124 -224
-110 -208 -194 -350 -231 -389 -19 -20 -29 -23 -69 -18 -25 3 -67 17 -93 31
l-47 24 87 78 c190 169 227 213 293 349 71 145 108 189 145 175 14 -5 33 -6
42 -3z m-527 -22 c0 -28 -21 -33 -39 -11 -10 11 -8 17 6 25 27 16 33 13 33
-14z m1674 -534 c23 -78 20 -93 -20 -132 l-35 -34 7 62 c5 50 3 68 -10 88 -16
24 -15 27 6 55 12 17 25 27 29 23 4 -5 14 -32 23 -62z m-514 -68 c0 -18 -415
-182 -427 -169 -1 1 14 54 35 117 l39 114 114 7 c63 4 132 11 153 15 40 9 40
9 63 -37 13 -25 23 -46 23 -47z m400 -22 c0 -42 -24 -92 -62 -127 -35 -33
-148 -108 -154 -102 -2 2 -10 30 -18 62 -9 33 -22 68 -29 80 -14 20 -13 21 28
18 46 -4 107 22 180 76 46 34 55 32 55 -7z m-417 -39 c25 -27 67 -124 67 -155
l0 -28 -40 32 c-36 30 -46 32 -135 37 -52 2 -95 9 -95 13 0 13 -48 11 -52 -2
-2 -6 -13 -9 -23 -7 -17 5 -16 7 10 17 17 6 77 34 135 61 58 27 108 49 111 50
3 0 13 -8 22 -18z m-1614 -646 c-6 -17 -13 -96 -14 -179 l-3 -148 -58 -62
c-32 -34 -135 -138 -229 -232 -239 -237 -295 -326 -417 -657 l-59 -163 5 86
c18 280 153 651 334 919 39 58 137 182 218 275 80 94 165 194 188 223 l41 53
3 -42 c2 -22 -2 -55 -9 -73z m15 -596 c12 -123 24 -182 55 -286 68 -222 100
-283 381 -715 159 -245 230 -359 230 -373 0 -3 -8 -6 -19 -6 -34 0 -44 -25
-26 -64 10 -20 21 -36 26 -36 5 0 9 -4 9 -9 0 -4 -11 -6 -24 -4 -53 11 -76
-87 -32 -141 l23 -30 -37 -80 c-20 -45 -45 -104 -54 -132 l-17 -51 -72 -21
c-222 -65 -451 -51 -650 41 -332 153 -557 487 -583 862 -6 79 -3 102 20 189
15 54 37 121 50 150 13 28 31 76 40 106 28 85 121 268 170 335 25 33 143 159
263 280 l218 220 7 -40 c4 -22 14 -110 22 -195z"/>
<path d="M3425 12651 c20 -19 119 -41 203 -45 48 -2 74 -2 57 0 -139 18 -192
27 -228 40 -23 8 -37 11 -32 5z"/>
<path d="M3255 12571 c28 -29 59 -57 70 -63 23 -12 22 -12 -60 62 l-60 54 50
-53z"/>
<path d="M3731 12596 c2 -2 47 -6 99 -9 68 -4 81 -3 45 3 -52 9 -152 13 -144
6z"/>
<path d="M3319 12483 c42 -40 80 -73 86 -73 5 0 -8 15 -30 32 -22 18 -61 51
-86 73 -25 22 -12 7 30 -32z"/>
<path d="M3284 12413 c29 -56 175 -239 176 -221 0 4 -25 35 -56 69 -30 35 -71
89 -91 121 -38 61 -54 78 -29 31z"/>
<path d="M3023 12095 c0 -22 2 -30 4 -17 2 12 2 30 0 40 -3 9 -5 -1 -4 -23z"/>
</g>
</svg>
